#!OML:ASF F:\VICON\USERDATA\INSTALL\rory3\rory3.ASF
:FULLY-SPECIFIED
:DEGREES
1088
root -2.69267 16.675 4.60486 26.6043 -11.7797 357.722
lowerback -5.9867 -1.72122 2.4617
upperback -9.91073 -2.38401 0.772021
thorax -7.08816 -1.37083 -0.550387
lowerneck -9.17254 -11.682 -7.92027
upperneck 14.4301 -16.6933 10.9774
head 7.54491 -7.66137 3.08522
rclavicle 5.85048e-014 -7.35503e-015
rhumerus -36.4278 -25.941 -64.7542
rradius 14.1497
rwrist 10.2902
rhand -2.34951 14.8294
rfingers 7.12502
rthumb 23.3381 -13.7758
lclavicle 5.85048e-014 -7.35503e-015
lhumerus -54.0464 30.5312 51.6811
lradius 21.9219
lwrist -13.0358
lhand -1.42759 21.593
lfingers 7.12502
lthumb 24.2223 50.0832
rfemur -31.5403 4.14052 29.9317
rtibia 32.1071
rfoot -33.8011 -35.1395
rtoes 9.15243
lfemur -58.3066 8.26229 -19.1653
ltibia 45.2296
lfoot -15.4162 10.7832
ltoes -49.3998
1089
root -2.66742 16.6892 4.6953 26.1482 -12.3055 357.119
lowerback -5.67309 -1.5362 3.11116
upperback -9.64314 -2.13577 0.747546
thorax -6.99734 -1.28853 -0.935034
lowerneck -10.0063 -11.6475 -7.55188
upperneck 15.2165 -16.6633 10.5153
head 7.87118 -7.60566 2.82975
rclavicle 3.29237e-015 2.5842e-014
rhumerus -36.2838 -25.2462 -65.5859
rradius 14.9052
rwrist 8.63178
rhand -2.42981 15.0041
rfingers 7.12502
rthumb 23.2611 -13.6109
lclavicle 3.29237e-015 2.5842e-014
lhumerus -54.95 31.4298 50.2269
lradius 21.3297
lwrist -13.833
lhand -1.63548 22.019
lfingers 7.12502
lthumb 24.023 50.5356
rfemur -30.4297 3.1485 30.5282
rtibia 31.7668
rfoot -31.6231 -35.2236
rtoes 4.18758
lfemur -58.0915 8.19568 -18.5151
ltibia 43.9118
lfoot -14.6591 8.92864
ltoes -50.0894
1090
root -2.6785 16.6848 4.76818 26.0635 -13.8898 357.481
lowerback -5.84979 -1.30952 1.89059
upperback -9.58906 -1.83412 0.562119
thorax -6.78034 -1.05933 -0.459135
lowerneck -9.57907 -11.5219 -7.57152
upperneck 14.8441 -16.5294 10.8408
head 7.69288 -7.54773 2.98417
rclavicle -5.26779e-015 -1.98785e-015
rhumerus -36.1625 -25.0699 -66.1216
rradius 15.3879
rwrist 7.24743
rhand -2.5871 15.0508
rfingers 7.12502
rthumb 23.1102 -13.5831
lclavicle -5.26779e-015 -1.98785e-015
lhumerus -55.882 31.9415 49.1651
lradius 21.167
lwrist -14.1389
lhand -1.70642 22.828
lfingers 7.12502
lthumb 23.955 51.3536
rfemur -30.132 4.27948 29.5898
rtibia 31.6355
rfoot -30.9561 -35.5297
rtoes 3.04204
lfemur -58.4365 8.55317 -19.0161
ltibia 42.7697
lfoot -13.8831 6.93038
ltoes -49.5804
1091
root -2.66427 16.6581 4.80842 26.5109 -13.6925 357.351
lowerback -6.13332 -1.47864 2.10169
upperback -9.73133 -2.07314 0.574249
thorax -6.78971 -1.19636 -0.568313
lowerneck -9.6733 -11.3965 -7.34523
upperneck 14.9567 -16.4039 10.8484
head 7.71572 -7.46927 2.96375
rclavicle -2.68608e-014 5.1684e-015
rhumerus -36.0168 -24.9271 -66.6996
rradius 15.8649
rwrist 5.80696
rhand -2.6409 14.8801
rfingers 7.12502
rthumb 23.0586 -13.7603
lclavicle -2.68608e-014 5.1684e-015
lhumerus -56.8828 32.622 47.6744
lradius 20.7175
lwrist -14.7263
lhand -1.73117 23.2233
lfingers 7.12502
lthumb 23.9312 51.752
rfemur -30.5351 3.4951 29.8924
rtibia 31.7725
rfoot -30.3945 -35.1732
rtoes 1.70502
lfemur -59.7772 8.30222 -19.1072
ltibia 42.0384
lfoot -12.231 4.707
ltoes -49.8859
1092
root -2.64632 16.6442 4.90235 25.9871 -14.7296 357.351
lowerback -6.0329 -1.32601 1.81457
upperback -9.48127 -1.8677 0.466399
thorax -6.56003 -1.0742 -0.524286
lowerneck -9.87219 -11.2966 -7.28271
upperneck 15.1423 -16.2888 10.8446
head 7.79502 -7.39794 2.95508
rclavicle 2.88238e-014 1.27222e-014
rhumerus -35.8237 -24.9901 -67.0601
rradius 16.2998
rwrist 4.78337
rhand -2.95052 14.6924
rfingers 7.12502
rthumb 22.7615 -13.9849
lclavicle 2.88238e-014 1.27222e-014
lhumerus -58.304 33.9783 45.3366
lradius 19.921
lwrist -16.2382
lhand -1.82673 22.8223
lfingers 7.12502
lthumb 23.8396 51.3629
rfemur -29.8152 3.18193 29.5588
rtibia 32.158
rfoot -30.2085 -34.3575
rtoes 0.654054
lfemur -59.5167 8.44749 -19.3693
ltibia 41.6197
lfoot -10.9707 3.36003
ltoes -48.2925
1093
root -2.63913 16.6216 4.98195 25.8086 -15.5608 357.466
lowerback -6.36101 -1.23675 1.35267
upperback -9.25071 -1.75115 0.368236
thorax -6.10742 -0.985683 -0.382984
lowerneck -9.90752 -11.2231 -7.20226
upperneck 15.0864 -16.1931 10.8569
head 7.7681 -7.34808 2.95904
rclavicle -9.98893e-015 -2.78299e-015
rhumerus -35.607 -26.1638 -66.8408
rradius 16.3701
rwrist 4.98251
rhand -3.18947 15.1199
rfingers 7.12502
rthumb 22.5321 -13.5854
lclavicle -9.98893e-015 -2.78299e-015
lhumerus -59.6224 35.2536 43.1698
lradius 19.3451
lwrist -17.6469
lhand -1.87562 22.3163
lfingers 7.12502
lthumb 23.7927 50.8631
rfemur -29.7081 3.05469 29.1932
rtibia 32.7223
rfoot -30.0951 -34.0747
rtoes -0.792217
lfemur -59.9834 8.64347 -19.8538
ltibia 41.7596
lfoot -9.57185 2.38493
ltoes -45.7485
1094
root -2.62881 16.5831 5.05594 25.6946 -16.1383 357.275
lowerback -6.50231 -1.1846 1.27582
upperback -9.10378 -1.68285 0.365427
thorax -5.86487 -0.945092 -0.349009
lowerneck -9.89842 -11.1043 -7.03475
upperneck 15.0488 -16.047 10.8338
head 7.72413 -7.27404 2.948
rclavicle -1.31695e-015 1.55052e-014
rhumerus -35.4086 -26.3749 -67.1213
rradius 16.7417
rwrist 4.34128
rhand -3.29939 15.5976
rfingers 7.12502
rthumb 22.4266 -13.1204
lclavicle -1.31695e-015 1.55052e-014
lhumerus -60.8347 35.9665 41.5842
lradius 19.2135
lwrist -18.3086
lhand -1.91515 22.4455
lfingers 7.12502
lthumb 23.7548 50.9972
rfemur -29.5798 3.03415 29.1814
rtibia 33.3012
rfoot -30.2151 -33.7949
rtoes -1.20942
lfemur -60.6295 8.91295 -20.0898
ltibia 42.3872
lfoot -8.46632 2.34234
ltoes -42.3765
1095
root -2.60945 16.5205 5.12764 25.5766 -16.6395 356.866
lowerback -6.26051 -1.15299 1.45036
upperback -9.14836 -1.63966 0.427802
thorax -6.05238 -0.933737 -0.373828
lowerneck -9.71017 -10.8839 -6.83704
upperneck 15.0948 -15.7921 10.8419
head 7.6662 -7.14956 2.96532
rclavicle 3.44891e-014 1.82882e-014
rhumerus -35.5357 -26.427 -67.2417
rradius 17.0276
rwrist 3.75911
rhand -3.38909 16.3715
rfingers 7.12502
rthumb 22.3405 -12.3568
lclavicle 3.44891e-014 1.82882e-014
lhumerus -62.0924 36.0305 40.441
lradius 19.5234
lwrist -18.1778
lhand -1.86569 22.3773
lfingers 7.12502
lthumb 23.8022 50.9228
rfemur -29.4954 3.0854 29.3588
rtibia 34.2187
rfoot -30.6288 -33.308
rtoes -1.78696
lfemur -61.1548 9.2791 -20.2163
ltibia 43.3998
lfoot -7.87827 3.57537
ltoes -38.2023
1096
root -2.58752 16.46 5.21442 25.4877 -16.9003 356.31
lowerback -6.56511 -1.10382 2.05653
upperback -8.84306 -1.59497 0.438164
thorax -5.57026 -0.943039 -0.71399
lowerneck -9.86757 -10.7182 -6.61176
upperneck 14.9979 -15.6072 10.98
head 7.63921 -7.03616 2.9929
rclavicle -5.01931e-014 -1.74931e-014
rhumerus -35.2132 -27.4582 -67.2965
rradius 17.1189
rwrist 3.74466
rhand -3.73725 16.6815
rfingers 7.12502
rthumb 22.0063 -12.0866
lclavicle -5.01931e-014 -1.74931e-014
lhumerus -62.4721 36.2382 39.9226
lradius 19.8022
lwrist -17.3834
lhand -1.69747 22.5683
lfingers 7.12502
lthumb 23.9635 51.0928
rfemur -29.3317 2.14391 29.8599
rtibia 35.1377
rfoot -30.8217 -32.1697
rtoes -2.77588
lfemur -61.563 9.51397 -20.2155
ltibia 44.7586
lfoot -7.86081 5.67852
ltoes -35.0639
1097
root -2.5742 16.3979 5.26461 24.6221 -18.0348 356.735
lowerback -5.8419 -1.0324 1.08663
upperback -8.52018 -1.4692 0.251938
thorax -5.60174 -0.824142 -0.354055
lowerneck -10.0379 -10.6503 -6.60241
upperneck 14.862 -15.5229 11.1466
head 7.63109 -6.98027 3.04797
rclavicle 4.16205e-014 1.78906e-014
rhumerus -34.4327 -26.258 -68.763
rradius 18.0082
rwrist 1.42274
rhand -4.39261 15.7513
rfingers 7.12502
rthumb 21.3769 -13.0895
lclavicle 4.16205e-014 1.78906e-014
lhumerus -62.8029 36.6015 39.303
lradius 19.6861
lwrist -16.7604
lhand -1.73537 22.7693
lfingers 7.12502
lthumb 23.9272 51.2985
rfemur -28.9373 2.44834 29.0349
rtibia 36.1636
rfoot -31.3312 -31.8534
rtoes -3.01977
lfemur -61.2536 9.70404 -20.9989
ltibia 46.1847
lfoot -8.33039 7.70564
ltoes -31.1524
1098
root -2.55444 16.35 5.36992 23.9817 -19.177 356.568
lowerback -5.88309 -0.742272 1.08306
upperback -8.01047 -1.0855 0.0449394
thorax -5.03099 -0.631435 -0.571048
lowerneck -10.3721 -10.6694 -6.37529
upperneck 14.7782 -15.5667 11.168
head 7.65106 -6.97661 2.99854
rclavicle -7.88678e-014 9.93923e-015
rhumerus -33.7508 -24.7869 -70.3684
rradius 19.1695
rwrist -1.22735
rhand -4.75701 15.2904
rfingers 7.12502
rthumb 21.0269 -13.5897
lclavicle -7.88678e-014 9.93923e-015
lhumerus -63.1847 37.4563 37.9627
lradius 19.0542
lwrist -17.3286
lhand -2.18902 21.9572
lfingers 7.12502
lthumb 23.4921 50.5428
rfemur -28.2163 2.33492 28.7293
rtibia 37.0051
rfoot -31.4165 -31.3357
rtoes -4.87727
lfemur -60.7997 10.183 -21.246
ltibia 47.7183
lfoot -9.08812 8.45294
ltoes -26.9607
